<mxfile host="Electron" agent="Mozilla/5.0 (Windows NT 10.0; Win64; x64) AppleWebKit/537.36 (KHTML, like Gecko) draw.io/27.0.9 Chrome/134.0.6998.205 Electron/35.4.0 Safari/537.36" version="27.0.9">
  <diagram name="Page-1" id="J2kkI0_8iNk8CDD_vPiR">
    <mxGraphModel dx="933" dy="597" grid="1" gridSize="10" guides="1" tooltips="1" connect="1" arrows="1" fold="1" page="1" pageScale="1" pageWidth="850" pageHeight="1100" math="0" shadow="0">
      <root>
        <mxCell id="0" />
        <mxCell id="1" parent="0" />
        <mxCell id="85Hk-5Uy1WJZmnsrojEk-1" value="crm_sales_details" style="swimlane;fontStyle=0;childLayout=stackLayout;horizontal=1;startSize=30;horizontalStack=0;resizeParent=1;resizeParentMax=0;resizeLast=0;collapsible=1;marginBottom=0;whiteSpace=wrap;html=1;rounded=1;swimlaneLine=1;strokeColor=#67AB9F;fontColor=#FFFFFF;fillColor=none;" vertex="1" parent="1">
          <mxGeometry x="200" y="320" width="140" height="90" as="geometry" />
        </mxCell>
        <mxCell id="85Hk-5Uy1WJZmnsrojEk-2" value="prd_key" style="text;strokeColor=none;fillColor=none;align=left;verticalAlign=middle;spacingLeft=4;spacingRight=4;overflow=hidden;points=[[0,0.5],[1,0.5]];portConstraint=eastwest;rotatable=0;whiteSpace=wrap;html=1;fontColor=#FFFFFF;" vertex="1" parent="85Hk-5Uy1WJZmnsrojEk-1">
          <mxGeometry y="30" width="140" height="30" as="geometry" />
        </mxCell>
        <mxCell id="85Hk-5Uy1WJZmnsrojEk-3" value="cst_id" style="text;strokeColor=none;fillColor=none;align=left;verticalAlign=middle;spacingLeft=4;spacingRight=4;overflow=hidden;points=[[0,0.5],[1,0.5]];portConstraint=eastwest;rotatable=0;whiteSpace=wrap;html=1;fontColor=#FFFFFF;" vertex="1" parent="85Hk-5Uy1WJZmnsrojEk-1">
          <mxGeometry y="60" width="140" height="30" as="geometry" />
        </mxCell>
        <mxCell id="85Hk-5Uy1WJZmnsrojEk-4" value="crm_prd_info" style="swimlane;fontStyle=0;childLayout=stackLayout;horizontal=1;startSize=30;horizontalStack=0;resizeParent=1;resizeParentMax=0;resizeLast=0;collapsible=1;marginBottom=0;whiteSpace=wrap;html=1;rounded=1;swimlaneLine=1;fillColor=none;strokeColor=#67AB9F;fontColor=#FFFFFF;" vertex="1" parent="1">
          <mxGeometry x="485" y="230" width="140" height="60" as="geometry" />
        </mxCell>
        <mxCell id="85Hk-5Uy1WJZmnsrojEk-5" value="prd_key" style="text;strokeColor=none;fillColor=none;align=left;verticalAlign=middle;spacingLeft=4;spacingRight=4;overflow=hidden;points=[[0,0.5],[1,0.5]];portConstraint=eastwest;rotatable=0;whiteSpace=wrap;html=1;fontColor=#FFFFFF;" vertex="1" parent="85Hk-5Uy1WJZmnsrojEk-4">
          <mxGeometry y="30" width="140" height="30" as="geometry" />
        </mxCell>
        <mxCell id="85Hk-5Uy1WJZmnsrojEk-6" value="crm_cust_info" style="swimlane;fontStyle=0;childLayout=stackLayout;horizontal=1;startSize=30;horizontalStack=0;resizeParent=1;resizeParentMax=0;resizeLast=0;collapsible=1;marginBottom=0;whiteSpace=wrap;html=1;rounded=1;swimlaneLine=1;strokeColor=#67AB9F;fontColor=#FFFFFF;fillColor=none;" vertex="1" parent="1">
          <mxGeometry x="485" y="410" width="140" height="90" as="geometry" />
        </mxCell>
        <mxCell id="85Hk-5Uy1WJZmnsrojEk-7" value="cst_id" style="text;strokeColor=none;fillColor=none;align=left;verticalAlign=middle;spacingLeft=4;spacingRight=4;overflow=hidden;points=[[0,0.5],[1,0.5]];portConstraint=eastwest;rotatable=0;whiteSpace=wrap;html=1;fontColor=#FFFFFF;" vertex="1" parent="85Hk-5Uy1WJZmnsrojEk-6">
          <mxGeometry y="30" width="140" height="30" as="geometry" />
        </mxCell>
        <mxCell id="85Hk-5Uy1WJZmnsrojEk-8" value="cst_key" style="text;strokeColor=none;fillColor=none;align=left;verticalAlign=middle;spacingLeft=4;spacingRight=4;overflow=hidden;points=[[0,0.5],[1,0.5]];portConstraint=eastwest;rotatable=0;whiteSpace=wrap;html=1;fontColor=#FFFFFF;" vertex="1" parent="85Hk-5Uy1WJZmnsrojEk-6">
          <mxGeometry y="60" width="140" height="30" as="geometry" />
        </mxCell>
        <mxCell id="85Hk-5Uy1WJZmnsrojEk-9" value="Extra Customer Information(Birthdate)" style="text;strokeColor=none;align=center;fillColor=none;html=1;verticalAlign=middle;whiteSpace=wrap;rounded=0;fontColor=#FFFFFF;" vertex="1" parent="1">
          <mxGeometry x="720" y="335" width="260" height="30" as="geometry" />
        </mxCell>
        <mxCell id="85Hk-5Uy1WJZmnsrojEk-10" value="Transactional records about sales and orders" style="text;strokeColor=none;align=center;fillColor=none;html=1;verticalAlign=middle;whiteSpace=wrap;rounded=0;fontColor=#FFFFFF;" vertex="1" parent="1">
          <mxGeometry x="140" y="290" width="260" height="30" as="geometry" />
        </mxCell>
        <mxCell id="85Hk-5Uy1WJZmnsrojEk-11" value="Customer Information" style="text;strokeColor=none;align=center;fillColor=none;html=1;verticalAlign=middle;whiteSpace=wrap;rounded=0;fontColor=#FFFFFF;" vertex="1" parent="1">
          <mxGeometry x="425" y="380" width="260" height="30" as="geometry" />
        </mxCell>
        <mxCell id="85Hk-5Uy1WJZmnsrojEk-12" style="edgeStyle=none;rounded=0;orthogonalLoop=1;jettySize=auto;html=1;exitX=1;exitY=0.5;exitDx=0;exitDy=0;entryX=0.028;entryY=-0.038;entryDx=0;entryDy=0;entryPerimeter=0;fontColor=#FFFFFF;strokeColor=#FFFFFF;" edge="1" parent="1" source="85Hk-5Uy1WJZmnsrojEk-2" target="85Hk-5Uy1WJZmnsrojEk-5">
          <mxGeometry relative="1" as="geometry" />
        </mxCell>
        <mxCell id="85Hk-5Uy1WJZmnsrojEk-13" style="edgeStyle=none;rounded=0;orthogonalLoop=1;jettySize=auto;html=1;exitX=1;exitY=0.5;exitDx=0;exitDy=0;entryX=-0.004;entryY=-0.017;entryDx=0;entryDy=0;entryPerimeter=0;fontColor=#FFFFFF;strokeColor=#FFFFFF;" edge="1" parent="1" source="85Hk-5Uy1WJZmnsrojEk-2" target="85Hk-5Uy1WJZmnsrojEk-7">
          <mxGeometry relative="1" as="geometry" />
        </mxCell>
        <mxCell id="85Hk-5Uy1WJZmnsrojEk-14" value="erp_px_cat_g1v2" style="swimlane;fontStyle=0;childLayout=stackLayout;horizontal=1;startSize=30;horizontalStack=0;resizeParent=1;resizeParentMax=0;resizeLast=0;collapsible=1;marginBottom=0;whiteSpace=wrap;html=1;rounded=1;swimlaneLine=1;fillColor=none;strokeColor=#FFD966;fontColor=#FFFFFF;" vertex="1" parent="1">
          <mxGeometry x="780" y="220" width="140" height="60" as="geometry" />
        </mxCell>
        <mxCell id="85Hk-5Uy1WJZmnsrojEk-15" value="id" style="text;strokeColor=#FFD966;fillColor=none;align=left;verticalAlign=middle;spacingLeft=4;spacingRight=4;overflow=hidden;points=[[0,0.5],[1,0.5]];portConstraint=eastwest;rotatable=0;whiteSpace=wrap;html=1;fontColor=#FFFFFF;" vertex="1" parent="85Hk-5Uy1WJZmnsrojEk-14">
          <mxGeometry y="30" width="140" height="30" as="geometry" />
        </mxCell>
        <mxCell id="85Hk-5Uy1WJZmnsrojEk-16" value="erp_cust_az12" style="swimlane;fontStyle=0;childLayout=stackLayout;horizontal=1;startSize=30;horizontalStack=0;resizeParent=1;resizeParentMax=0;resizeLast=0;collapsible=1;marginBottom=0;whiteSpace=wrap;html=1;rounded=1;swimlaneLine=1;fillColor=none;strokeColor=#FFD966;fontColor=#FFFFFF;" vertex="1" parent="1">
          <mxGeometry x="777.87" y="365" width="140" height="60" as="geometry" />
        </mxCell>
        <mxCell id="85Hk-5Uy1WJZmnsrojEk-17" value="cid" style="text;strokeColor=#FFD966;fillColor=none;align=left;verticalAlign=middle;spacingLeft=4;spacingRight=4;overflow=hidden;points=[[0,0.5],[1,0.5]];portConstraint=eastwest;rotatable=0;whiteSpace=wrap;html=1;fontColor=#FFFFFF;" vertex="1" parent="85Hk-5Uy1WJZmnsrojEk-16">
          <mxGeometry y="30" width="140" height="30" as="geometry" />
        </mxCell>
        <mxCell id="85Hk-5Uy1WJZmnsrojEk-18" value="erp_loc_a101" style="swimlane;fontStyle=0;childLayout=stackLayout;horizontal=1;startSize=30;horizontalStack=0;resizeParent=1;resizeParentMax=0;resizeLast=0;collapsible=1;marginBottom=0;whiteSpace=wrap;html=1;rounded=1;swimlaneLine=1;fillColor=none;strokeColor=#FFD966;fontColor=#FFFFFF;" vertex="1" parent="1">
          <mxGeometry x="777.87" y="490" width="140" height="60" as="geometry" />
        </mxCell>
        <mxCell id="85Hk-5Uy1WJZmnsrojEk-19" value="cid" style="text;strokeColor=#FFD966;fillColor=none;align=left;verticalAlign=middle;spacingLeft=4;spacingRight=4;overflow=hidden;points=[[0,0.5],[1,0.5]];portConstraint=eastwest;rotatable=0;whiteSpace=wrap;html=1;fontColor=#FFFFFF;" vertex="1" parent="85Hk-5Uy1WJZmnsrojEk-18">
          <mxGeometry y="30" width="140" height="30" as="geometry" />
        </mxCell>
        <mxCell id="85Hk-5Uy1WJZmnsrojEk-20" value="Current &amp;amp; History Product Information" style="text;strokeColor=none;align=center;fillColor=none;html=1;verticalAlign=middle;whiteSpace=wrap;rounded=0;fontColor=#FFFFFF;" vertex="1" parent="1">
          <mxGeometry x="435" y="210" width="260" height="30" as="geometry" />
        </mxCell>
        <mxCell id="85Hk-5Uy1WJZmnsrojEk-21" value="Product Categories" style="text;strokeColor=none;align=center;fillColor=none;html=1;verticalAlign=middle;whiteSpace=wrap;rounded=0;fontColor=#FFFFFF;" vertex="1" parent="1">
          <mxGeometry x="720" y="190" width="260" height="30" as="geometry" />
        </mxCell>
        <mxCell id="85Hk-5Uy1WJZmnsrojEk-22" value="Location of Customers(Country)" style="text;strokeColor=none;align=center;fillColor=none;html=1;verticalAlign=middle;whiteSpace=wrap;rounded=0;fontColor=#FFFFFF;" vertex="1" parent="1">
          <mxGeometry x="717.5" y="460" width="260" height="30" as="geometry" />
        </mxCell>
        <mxCell id="85Hk-5Uy1WJZmnsrojEk-23" style="edgeStyle=none;rounded=0;orthogonalLoop=1;jettySize=auto;html=1;exitX=0;exitY=0.5;exitDx=0;exitDy=0;entryX=1.005;entryY=0.233;entryDx=0;entryDy=0;entryPerimeter=0;fontColor=#FFFFFF;strokeColor=#FFFFFF;" edge="1" parent="1" source="85Hk-5Uy1WJZmnsrojEk-19" target="85Hk-5Uy1WJZmnsrojEk-7">
          <mxGeometry relative="1" as="geometry" />
        </mxCell>
        <mxCell id="85Hk-5Uy1WJZmnsrojEk-24" style="edgeStyle=none;rounded=0;orthogonalLoop=1;jettySize=auto;html=1;exitX=0;exitY=0.5;exitDx=0;exitDy=0;entryX=1;entryY=0.5;entryDx=0;entryDy=0;fontColor=#FFFFFF;strokeColor=#FFFFFF;" edge="1" parent="1" source="85Hk-5Uy1WJZmnsrojEk-17" target="85Hk-5Uy1WJZmnsrojEk-7">
          <mxGeometry relative="1" as="geometry" />
        </mxCell>
        <mxCell id="85Hk-5Uy1WJZmnsrojEk-25" style="edgeStyle=none;rounded=0;orthogonalLoop=1;jettySize=auto;html=1;exitX=0;exitY=0.5;exitDx=0;exitDy=0;entryX=1;entryY=0.5;entryDx=0;entryDy=0;fontColor=#FFFFFF;strokeColor=#FFFFFF;" edge="1" parent="1" source="85Hk-5Uy1WJZmnsrojEk-15" target="85Hk-5Uy1WJZmnsrojEk-5">
          <mxGeometry relative="1" as="geometry" />
        </mxCell>
        <mxCell id="85Hk-5Uy1WJZmnsrojEk-26" value="" style="rounded=1;whiteSpace=wrap;html=1;fillColor=none;dashed=1;strokeColor=#67AB9F;arcSize=9;fontColor=#FFFFFF;" vertex="1" parent="1">
          <mxGeometry x="145" y="170" width="550" height="480" as="geometry" />
        </mxCell>
        <mxCell id="85Hk-5Uy1WJZmnsrojEk-27" value="" style="rounded=1;whiteSpace=wrap;html=1;fillColor=none;dashed=1;strokeColor=#FFD966;fontColor=#FFFFFF;" vertex="1" parent="1">
          <mxGeometry x="745" y="170" width="210" height="480" as="geometry" />
        </mxCell>
        <mxCell id="85Hk-5Uy1WJZmnsrojEk-28" value="&lt;font style=&quot;font-size: 25px;&quot;&gt;&lt;b&gt;CRM&lt;/b&gt;&lt;/font&gt;" style="rounded=1;whiteSpace=wrap;html=1;fillColor=#67AB9F;strokeColor=none;fontColor=#FFFFFF;" vertex="1" parent="1">
          <mxGeometry x="348" y="130" width="120" height="60" as="geometry" />
        </mxCell>
        <mxCell id="85Hk-5Uy1WJZmnsrojEk-29" value="&lt;font style=&quot;font-size: 25px;&quot;&gt;&lt;b&gt;ERP&lt;/b&gt;&lt;/font&gt;" style="rounded=1;whiteSpace=wrap;html=1;fillColor=#FFD966;strokeColor=none;fontColor=#000000;" vertex="1" parent="1">
          <mxGeometry x="790" y="130" width="120" height="60" as="geometry" />
        </mxCell>
        <mxCell id="85Hk-5Uy1WJZmnsrojEk-30" value="CUSTOMERS" style="text;html=1;align=center;verticalAlign=middle;whiteSpace=wrap;overflow=hidden;fillColor=#fa6800;strokeColor=#C73500;fontColor=#FFFFFF;" vertex="1" parent="1">
          <mxGeometry x="781.75" y="430" width="130" height="20" as="geometry" />
        </mxCell>
        <mxCell id="85Hk-5Uy1WJZmnsrojEk-31" value="SALES" style="text;html=1;align=center;verticalAlign=middle;whiteSpace=wrap;overflow=hidden;fillColor=#60a917;strokeColor=#2D7600;fontColor=#FFFFFF;" vertex="1" parent="1">
          <mxGeometry x="205" y="410" width="130" height="20" as="geometry" />
        </mxCell>
        <mxCell id="85Hk-5Uy1WJZmnsrojEk-32" value="PRODUCT" style="text;html=1;align=center;verticalAlign=middle;whiteSpace=wrap;overflow=hidden;fillColor=#d80073;strokeColor=#A50040;fontColor=#FFFFFF;" vertex="1" parent="1">
          <mxGeometry x="491.5" y="290" width="130" height="20" as="geometry" />
        </mxCell>
        <mxCell id="85Hk-5Uy1WJZmnsrojEk-33" value="PRODUCT" style="text;html=1;align=center;verticalAlign=middle;whiteSpace=wrap;overflow=hidden;fillColor=#d80073;strokeColor=#A50040;fontColor=#FFFFFF;" vertex="1" parent="1">
          <mxGeometry x="787.87" y="280" width="130" height="20" as="geometry" />
        </mxCell>
        <mxCell id="85Hk-5Uy1WJZmnsrojEk-34" value="CUSTOMERS" style="text;html=1;align=center;verticalAlign=middle;whiteSpace=wrap;overflow=hidden;fillColor=#fa6800;strokeColor=#C73500;fontColor=#FFFFFF;" vertex="1" parent="1">
          <mxGeometry x="490" y="500" width="130" height="20" as="geometry" />
        </mxCell>
        <mxCell id="85Hk-5Uy1WJZmnsrojEk-35" value="CUSTOMERS" style="text;html=1;align=center;verticalAlign=middle;whiteSpace=wrap;overflow=hidden;fillColor=#fa6800;strokeColor=#C73500;fontColor=#FFFFFF;" vertex="1" parent="1">
          <mxGeometry x="781.75" y="550" width="130" height="20" as="geometry" />
        </mxCell>
      </root>
    </mxGraphModel>
  </diagram>
</mxfile>
